<?xml version="1.0" encoding="utf-8"?>
<!-- Generator: Adobe Illustrator 19.1.0, SVG Export Plug-In . SVG Version: 6.00 Build 0)  -->
<!DOCTYPE svg PUBLIC "-//W3C//DTD SVG 1.1//EN" "http://www.w3.org/Graphics/SVG/1.1/DTD/svg11.dtd">
<svg version="1.1" id="Layer_1" xmlns="http://www.w3.org/2000/svg" xmlns:xlink="http://www.w3.org/1999/xlink" x="0px" y="0px"
	 viewBox="0 0 18 15" style="enable-background:new 0 0 18 15;" xml:space="preserve">
<style type="text/css">
	.st0{fill:#009DA5;}
</style>
<g>
	<polygon class="st0" points="0,0 0,2 0,6 1.9,6 1.9,2 5.7,2 5.7,0 1.9,0 	"/>
	<polygon class="st0" points="16.1,0 12.3,0 12.3,2 16.1,2 16.1,6 18,6 18,2 18,0 	"/>
	<polygon class="st0" points="1.9,9 0,9 0,13 0,15 1.9,15 5.7,15 5.7,13 1.9,13 	"/>
	<polygon class="st0" points="16.1,13 12.3,13 12.3,15 16.1,15 18,15 18,13 18,9 16.1,9 	"/>
</g>
</svg>
