<?xml version="1.0" encoding="utf-8"?>
<!-- Generator: Adobe Illustrator 19.2.1, SVG Export Plug-In . SVG Version: 6.00 Build 0)  -->
<!DOCTYPE svg PUBLIC "-//W3C//DTD SVG 1.1//EN" "http://www.w3.org/Graphics/SVG/1.1/DTD/svg11.dtd">
<svg version="1.1" id="Layer_1" xmlns="http://www.w3.org/2000/svg" xmlns:xlink="http://www.w3.org/1999/xlink" x="0px" y="0px"
	 viewBox="0 0 17 17" style="enable-background:new 0 0 17 17;" xml:space="preserve">
<style type="text/css">
	.st0{fill:#009DA5;}
</style>
<path class="st0" d="M6.5,8.1c2.3,0,3.9-1.8,3.9-4.1C10.4,1.8,8.8,0,6.5,0C4.2,0,2.7,1.8,2.7,4.1C2.7,6.3,4.2,8.1,6.5,8.1z"/>
<path class="st0" d="M9,13.6c0-1.4,0.5-2.6,1.2-3.4C10,10,9.9,9.9,9.7,9.8c-0.8,0.9-1.9,1.4-3.1,1.4c-1.2,0-2.3-0.5-3.1-1.4
	C1.5,11,0.2,13.3,0,16h9.5C9.2,15.3,9,14.5,9,13.6z"/>
<polygon class="st0" points="17,12.1 15.9,11 13.6,14.4 12,12.7 11,14.1 12.9,16.1 13.9,17 "/>
</svg>
