<?xml version="1.0" encoding="utf-8"?>
<!-- Generator: Adobe Illustrator 19.1.0, SVG Export Plug-In . SVG Version: 6.00 Build 0)  -->
<!DOCTYPE svg PUBLIC "-//W3C//DTD SVG 1.1//EN" "http://www.w3.org/Graphics/SVG/1.1/DTD/svg11.dtd">
<svg version="1.1" id="Layer_1" xmlns="http://www.w3.org/2000/svg" xmlns:xlink="http://www.w3.org/1999/xlink" x="0px" y="0px"
	 viewBox="0 0 21 21" style="enable-background:new 0 0 21 21;" xml:space="preserve">
<style type="text/css">
	.st0{fill:#009DA5;}
</style>
<g>
	<path class="st0" d="M10,7v2l3.8-3L10,3v2c-3.1,0-5,2.9-5,6h2C7,9.2,8.2,7,10,7z"/>
	<path class="st0" d="M11,14v-2l-3.8,3l3.8,3v-2c3.1,0,5-2.9,5-6h-2C14,11.8,12.8,14,11,14z"/>
	<path class="st0" d="M10.5,0C4.7,0,0,4.7,0,10.5C0,16.3,4.7,21,10.5,21C16.3,21,21,16.3,21,10.5C21,4.7,16.3,0,10.5,0z M10.5,19.7
		c-5.1,0-9.2-4.1-9.2-9.2s4.1-9.2,9.2-9.2c5.1,0,9.2,4.1,9.2,9.2S15.6,19.7,10.5,19.7z"/>
</g>
</svg>
