<?xml version="1.0" encoding="utf-8"?>
<!-- Generator: Adobe Illustrator 19.1.0, SVG Export Plug-In . SVG Version: 6.00 Build 0)  -->
<!DOCTYPE svg PUBLIC "-//W3C//DTD SVG 1.1//EN" "http://www.w3.org/Graphics/SVG/1.1/DTD/svg11.dtd">
<svg version="1.1" id="Layer_1" xmlns="http://www.w3.org/2000/svg" xmlns:xlink="http://www.w3.org/1999/xlink" x="0px" y="0px"
	 viewBox="0 0 17 17" style="enable-background:new 0 0 17 17;" xml:space="preserve">
<style type="text/css">
	.st0{fill:#009DA5;}
</style>
<path class="st0" d="M6.2,11.8c1.3,0,2.5-0.5,3.5-1.2l5.7,5.7c0.1,0.1,0.3,0.2,0.5,0.2c0.2,0,0.3-0.1,0.5-0.2c0.3-0.3,0.3-0.7,0-0.9
	l-5.7-5.7c0.8-1,1.2-2.2,1.2-3.5c0-3.1-2.5-5.7-5.7-5.7C3,0.5,0.5,3,0.5,6.2S3.1,11.8,6.2,11.8z M6.2,1.8c2.4,0,4.3,1.9,4.3,4.3
	s-1.9,4.3-4.3,4.3c-2.4,0-4.3-1.9-4.3-4.3S3.8,1.8,6.2,1.8z"/>
</svg>
