<?xml version="1.0" encoding="utf-8"?>
<!-- Generator: Adobe Illustrator 19.1.0, SVG Export Plug-In . SVG Version: 6.00 Build 0)  -->
<!DOCTYPE svg PUBLIC "-//W3C//DTD SVG 1.1//EN" "http://www.w3.org/Graphics/SVG/1.1/DTD/svg11.dtd">
<svg version="1.1" id="Layer_1" xmlns="http://www.w3.org/2000/svg" xmlns:xlink="http://www.w3.org/1999/xlink" x="0px" y="0px"
	 viewBox="0 -1 17 17" style="enable-background:new 0 -1 17 17;" xml:space="preserve">
<style type="text/css">
	.st0{fill:#009DA5;}
</style>
<path class="st0" d="M14.7,5.1c-0.4-0.9,0-1.9,0.8-2.4c-0.5-0.8-1.2-1.4-1.9-2c-0.3,0.3-0.7,0.5-1,0.7c-0.5,0.2-1,0.2-1.5,0
	S10.2,0.8,10,0.3C9.9-0.1,9.8-0.5,9.9-0.9C9-1.1,8-1.1,7.1-0.9C7.3,0,6.8,0.9,5.9,1.2C5,1.6,4.1,1.2,3.5,0.5c-0.8,0.5-1.4,1.2-2,2
	C1.8,2.7,2.1,3,2.2,3.3c0.2,0.5,0.2,1,0,1.5C2,5.3,1.6,5.7,1.1,5.9C0.8,6,0.4,6.1,0,6c-0.1,1-0.1,1.9,0,2.9c0.9-0.2,1.8,0.3,2.2,1.2
	c0.3,0.9,0,1.8-0.7,2.3c0.5,0.8,1.2,1.4,2,2c0.2-0.3,0.5-0.5,0.9-0.7c0.5-0.2,1-0.2,1.5,0s0.9,0.6,1.1,1.1c0.1,0.3,0.2,0.7,0.1,1.1
	c0.9,0.2,1.8,0.2,2.7,0c-0.1-0.9,0.3-1.8,1.2-2.1s1.8,0,2.4,0.7c0.8-0.5,1.4-1.2,2-2c-0.3-0.2-0.5-0.5-0.7-0.9c-0.2-0.5-0.2-1,0-1.5
	s0.6-0.9,1.1-1.1c0.3-0.1,0.7-0.2,1.1-0.1c0.2-0.9,0.2-1.8,0-2.7C15.9,6.4,15,5.9,14.7,5.1z M9.4,10C8,10.5,6.5,9.9,5.9,8.5
	C5.4,7.1,6,5.6,7.4,5c1.4-0.5,2.9,0.1,3.5,1.5C11.4,7.9,10.7,9.4,9.4,10z"/>
</svg>
