<?xml version="1.0" encoding="utf-8"?>
<!-- Generator: Adobe Illustrator 19.1.0, SVG Export Plug-In . SVG Version: 6.00 Build 0)  -->
<!DOCTYPE svg PUBLIC "-//W3C//DTD SVG 1.1//EN" "http://www.w3.org/Graphics/SVG/1.1/DTD/svg11.dtd">
<svg version="1.1" id="Layer_1" xmlns="http://www.w3.org/2000/svg" xmlns:xlink="http://www.w3.org/1999/xlink" x="0px" y="0px"
	 viewBox="0 -1 17 17" style="enable-background:new 0 -1 17 17;" xml:space="preserve">
<style type="text/css">
	.st0{fill:#009DA5;}
</style>
<g>
	<polygon class="st0" points="2,12 3,12 3,11 2,11 2,8 3,8 3,7 2,7 2,4 3,4 3,3 2,3 2,0 3,0 3,-1 2,-1 0,-1 0,16 1.7,16 2,16 17,16
		17,14 2,14 	"/>
	<rect x="4" y="2" class="st0" width="3" height="11"/>
	<rect x="9" y="-1" class="st0" width="3" height="14"/>
	<rect x="14" y="5" class="st0" width="3" height="8"/>
</g>
</svg>
