<?xml version="1.0" encoding="utf-8"?>
<!-- Generator: Adobe Illustrator 19.1.0, SVG Export Plug-In . SVG Version: 6.00 Build 0)  -->
<!DOCTYPE svg PUBLIC "-//W3C//DTD SVG 1.1//EN" "http://www.w3.org/Graphics/SVG/1.1/DTD/svg11.dtd">
<svg version="1.1" id="Layer_1" xmlns="http://www.w3.org/2000/svg" xmlns:xlink="http://www.w3.org/1999/xlink" x="0px" y="0px"
	 viewBox="0 -1 17 17" style="enable-background:new 0 -1 17 17;" xml:space="preserve">
<style type="text/css">
	.st0{fill:#009da5;}
</style>
<g>
	<path class="st0" d="M8.5-1C3.8-1,0,2.8,0,7.5S3.8,16,8.5,16S17,12.2,17,7.5S13.2-1,8.5-1z M8.5,11C4.9,11,3,8,3,7.5S4.9,4,8.5,4
		S14,7,14,7.5S12.1,11,8.5,11z"/>
	<path class="st0" d="M8.5,4.8C7.1,4.8,6.1,6,6.1,7.5s1.1,2.7,2.4,2.7s2.4-1.2,2.4-2.7S9.8,4.8,8.5,4.8z M8.5,8.8
		c-0.7,0-1.2-0.6-1.2-1.3c0-0.1,0-0.5,0.3-0.9s0.8-0.5,0.9-0.5c0.7,0,1.2,0.6,1.2,1.3C9.7,8.2,9.2,8.8,8.5,8.8z"/>
</g>
</svg>
