<?xml version="1.0" encoding="utf-8"?>
<!-- Generator: Adobe Illustrator 19.1.0, SVG Export Plug-In . SVG Version: 6.00 Build 0)  -->
<!DOCTYPE svg PUBLIC "-//W3C//DTD SVG 1.1//EN" "http://www.w3.org/Graphics/SVG/1.1/DTD/svg11.dtd">
<svg version="1.1" id="Layer_1" xmlns="http://www.w3.org/2000/svg" xmlns:xlink="http://www.w3.org/1999/xlink" x="0px" y="0px"
	 viewBox="0 0 48 30" style="enable-background:new 0 0 48 30;" xml:space="preserve">
<style type="text/css">
	.st0{fill:#009DA5;}
</style>
<path class="st0" d="M0,15c0,2.1,8.3,15,24,15c15.7,0,24-12.9,24-15c0-2.1-8.2-15-24-15C8.3,0,0,12.9,0,15z M13.3,15
	c0-6.4,4.8-11.5,10.7-11.5c5.9,0,10.6,5.2,10.6,11.5c0,6.4-4.8,11.5-10.6,11.5C18.1,26.5,13.3,21.4,13.3,15z M18.7,15
	c0,3.2,2.4,5.8,5.3,5.8c2.9,0,5.3-2.6,5.3-5.8c0-3.2-2.4-5.8-5.3-5.8c-0.4,0-2.5,0.2-4.1,2.1C18.7,12.8,18.7,14.5,18.7,15z"/>
</svg>
