<?xml version="1.0" encoding="utf-8"?>
<!-- Generator: Adobe Illustrator 19.1.0, SVG Export Plug-In . SVG Version: 6.00 Build 0)  -->
<!DOCTYPE svg PUBLIC "-//W3C//DTD SVG 1.1//EN" "http://www.w3.org/Graphics/SVG/1.1/DTD/svg11.dtd">
<svg version="1.1" id="Layer_1" xmlns="http://www.w3.org/2000/svg" xmlns:xlink="http://www.w3.org/1999/xlink" x="0px" y="0px"
	 viewBox="0 0 20 18" style="enable-background:new 0 0 20 18;" xml:space="preserve">
<style type="text/css">
	.st0{fill:#ED1C24;}
	.st1{fill-rule:evenodd;clip-rule:evenodd;fill:#FFFFFF;}
</style>
<path class="st0" d="M0.1,16.5l9-15.9c0.4-0.7,1.4-0.7,1.7,0l9,15.9c0.4,0.7-0.1,1.5-0.9,1.5H1C0.2,18-0.3,17.1,0.1,16.5z"/>
<g>
	<path class="st1" d="M8.6,5.5h3l-1,7h-1L8.6,5.5z"/>
	<path class="st1" d="M10.1,13.5c0.8,0,1.5,0.7,1.5,1.5c0,0.8-0.7,1.5-1.5,1.5c-0.8,0-1.5-0.7-1.5-1.5C8.6,14.2,9.3,13.5,10.1,13.5z
		"/>
</g>
</svg>
