<svg xmlns="http://www.w3.org/2000/svg" viewBox="0 0 33.62 20.35"><defs><style>.cls-1{fill:#777;}</style></defs><title>Asset 3</title><g id="Layer_2" data-name="Layer 2"><g id="Layer_1-2" data-name="Layer 1"><circle class="cls-1" cx="27.61" cy="6.5" r="2.74"/><path class="cls-1" d="M27.61,10.17a6,6,0,0,0-3.45,1.09,8.63,8.63,0,0,1,1.34,4.62,5.08,5.08,0,0,1-1.18,3.57,17.41,17.41,0,0,0,3.29.21c3.32,0,6-.17,6-3.49A6,6,0,0,0,27.61,10.17Z"/><circle class="cls-1" cx="6.01" cy="6.5" r="2.74"/><path class="cls-1" d="M9.47,11.27A6,6,0,0,0,0,16.19c0,3.32,2.69,3.49,6,3.49a17.41,17.41,0,0,0,3.29-.21,5.08,5.08,0,0,1-1.18-3.57A8.63,8.63,0,0,1,9.47,11.27Z"/><circle class="cls-1" cx="16.81" cy="3.5" r="3.5"/><path class="cls-1" d="M23.38,11.91a7.69,7.69,0,0,0-14.26,4,3.91,3.91,0,0,0,1.26,3.23c1.37,1.14,3.74,1.23,6.43,1.23s5.05-.09,6.43-1.23a3.91,3.91,0,0,0,1.26-3.23A7.64,7.64,0,0,0,23.38,11.91Z"/></g></g></svg>