<svg xmlns="http://www.w3.org/2000/svg" viewBox="0 0 28.09 24.05"><defs><style>.cls-1{fill:#ed1c24;}</style></defs><title>Asset 2</title><g id="Layer_2" data-name="Layer 2"><g id="Layer_1-2" data-name="Layer 1"><path class="cls-1" d="M27.69,21.44,15.36.54a1.84,1.84,0,0,0-2.59,0S.31,21.59.24,21.68a1.58,1.58,0,0,0,1.36,2.38H26.48A1.59,1.59,0,0,0,27.69,21.44Zm-13.64.06A1.49,1.49,0,1,1,15.54,20,1.49,1.49,0,0,1,14.05,21.5ZM15.94,9.65c0,1-1,7.18-1,7.18,0,.25-.23.22-.48.22h-.82c-.25,0-.45,0-.48-.22,0,0-1-6.17-1-7.29s0-2.07,0-2.07A1.86,1.86,0,0,1,14,5.89a1.9,1.9,0,0,1,1.9,1.63S15.93,8.69,15.94,9.65Z"/></g></g></svg>