<svg xmlns="http://www.w3.org/2000/svg" viewBox="0 0 24 24"><defs><style>.cls-1{fill:#faa61a;}</style></defs><title>Asset 1</title><g id="Layer_2" data-name="Layer 2"><g id="Layer_1-2" data-name="Layer 1"><path class="cls-1" d="M12,0A12,12,0,1,0,24,12,12,12,0,0,0,12,0Zm0,20.15h0A1.56,1.56,0,0,1,12,17h0a1.56,1.56,0,0,1,0,3.12ZM14,5.53S14,6.22,14,7c0,.23,0,.46,0,.69h0v.08c0,1-1.06,7.84-1.06,7.84,0,.26-.25.56-.51.56h-.86c-.26,0-.47-.31-.5-.56,0,0-1-6.53-1.06-7.7,0-.6,0-1.23,0-1.64s0-.73,0-.73a2,2,0,0,1,2-1.68,2.17,2.17,0,0,1,1.18.38A1.57,1.57,0,0,1,14,5.5v0Z"/></g></g></svg>