<svg xmlns="http://www.w3.org/2000/svg" viewBox="0 0 33.62 20.35"><defs><style>.cls-1{fill:#777;}.cls-2{fill:#0bff2d;}</style></defs><title>Asset 2</title><g id="Layer_2" data-name="Layer 2"><g id="Layer_1-2" data-name="Layer 1"><path class="cls-1" d="M27.21,9.19l.39,0,.39,0a2.74,2.74,0,1,0-.79,0Z"/><path class="cls-1" d="M28,10.19a3.65,3.65,0,0,1-.39,0,3.65,3.65,0,0,1-.39,0,6,6,0,0,0-3.06,1.07,8.63,8.63,0,0,1,1.34,4.62,5.08,5.08,0,0,1-1.18,3.57,17.41,17.41,0,0,0,3.29.21c3.32,0,6-.17,6-3.49A6,6,0,0,0,28,10.19Z"/><path class="cls-1" d="M5.62,9.19l.39,0,.39,0a2.74,2.74,0,1,0-.79,0Z"/><path class="cls-1" d="M9.47,11.27a6,6,0,0,0-3.06-1.07,3.65,3.65,0,0,1-.39,0,3.65,3.65,0,0,1-.39,0,6,6,0,0,0-5.62,6c0,3.32,2.69,3.49,6,3.49a17.41,17.41,0,0,0,3.29-.21,5.08,5.08,0,0,1-1.18-3.57A8.63,8.63,0,0,1,9.47,11.27Z"/><circle class="cls-1" cx="16.81" cy="3.5" r="3.5"/><path class="cls-1" d="M23.38,11.91c-.09-.14-.18-.29-.27-.42l-.3-.4a7.68,7.68,0,0,0-12,0l-.3.4c-.1.14-.18.28-.27.42a7.64,7.64,0,0,0-1.12,4,3.91,3.91,0,0,0,1.26,3.23,3.55,3.55,0,0,0,.46.33,4.34,4.34,0,0,0,.53.27,15.07,15.07,0,0,0,5.43.63,15.07,15.07,0,0,0,5.43-.63,4.35,4.35,0,0,0,.53-.27,3.56,3.56,0,0,0,.46-.33,3.91,3.91,0,0,0,1.26-3.23A7.64,7.64,0,0,0,23.38,11.91Z"/><path class="cls-2" d="M19.63,12.95a.92.92,0,0,0-1.3,0L15.9,15.38l-.65-.65A.92.92,0,1,0,14,16l1.27,1.27,0,0a.93.93,0,0,0,1.31,0l0,0,3.06-3.06A.92.92,0,0,0,19.63,12.95Z"/></g></g></svg>